<svg width="80" height="80" viewBox="0 0 80 80" fill="none" xmlns="http://www.w3.org/2000/svg">
  <defs>
    <linearGradient id="bg-gradient-david" x1="0%" y1="0%" x2="100%" y2="100%">
      <stop offset="0%" style="stop-color:#059669;stop-opacity:1" />
      <stop offset="100%" style="stop-color:#10b981;stop-opacity:1" />
    </linearGradient>
  </defs>
  
  <!-- Background Circle -->
  <circle cx="40" cy="40" r="40" fill="url(#bg-gradient-david)"/>
  
  <!-- Face -->
  <circle cx="40" cy="32" r="12" fill="#fbbf24"/>
  
  <!-- Hair (casual, friendly style) -->
  <path d="M28 24 C28 17, 33 14, 40 14 C47 14, 52 17, 52 24 C52 21, 49 19, 45 19 C42 19, 40 20, 40 20 C40 20, 38 19, 35 19 C31 19, 28 21, 28 24 Z" fill="#7c2d12"/>
  
  <!-- Eyes -->
  <circle cx="36" cy="30" r="1.5" fill="#1f2937"/>
  <circle cx="44" cy="30" r="1.5" fill="#1f2937"/>
  
  <!-- Eyebrows -->
  <path d="M33 27 L39 28" stroke="#7c2d12" stroke-width="1" stroke-linecap="round"/>
  <path d="M41 28 L47 27" stroke="#7c2d12" stroke-width="1" stroke-linecap="round"/>
  
  <!-- Nose -->
  <ellipse cx="40" cy="34" rx="1" ry="2" fill="#f59e0b"/>
  
  <!-- Mouth (friendly smile) -->
  <path d="M36 37 Q40 40 44 37" stroke="#dc2626" stroke-width="1.5" fill="none" stroke-linecap="round"/>
  
  <!-- Beard/Stubble -->
  <path d="M35 38 C35 42, 37 44, 40 44 C43 44, 45 42, 45 38" fill="#7c2d12" opacity="0.6"/>
  
  <!-- Body/Casual Shirt -->
  <path d="M25 55 C25 50, 30 45, 40 45 C50 45, 55 50, 55 55 L55 80 L25 80 Z" fill="#dc2626"/>
  
  <!-- Shirt Pattern (casual stripes) -->
  <line x1="25" y1="60" x2="55" y2="60" stroke="#b91c1c" stroke-width="1"/>
  <line x1="25" y1="65" x2="55" y2="65" stroke="#b91c1c" stroke-width="1"/>
  <line x1="25" y1="70" x2="55" y2="70" stroke="#b91c1c" stroke-width="1"/>
  
  <!-- Collar -->
  <path d="M35 45 L40 50 L45 45" stroke="#b91c1c" stroke-width="2" fill="none"/>
</svg>